<?xml version="1.0" encoding="iso-8859-1"?>
<!-- Generator: Adobe Illustrator 19.0.0, SVG Export Plug-In . SVG Version: 6.00 Build 0)  -->
<svg version="1.1" id="Capa_1" xmlns="http://www.w3.org/2000/svg" xmlns:xlink="http://www.w3.org/1999/xlink" x="0px" y="0px"
	 viewBox="0 0 512 512" style="enable-background:new 0 0 512 512;" xml:space="preserve">
<g>
	<g>
		<path d="M482,26H30C13.458,26,0,39.458,0,56v300c0,16.542,13.458,30,30,30h176v41.006c-19.563,3.987-35.007,19.431-38.994,38.994
			H136c-5.522,0-10,4.477-10,10s4.478,10,10,10h240c5.522,0,10-4.477,10-10s-4.478-10-10-10h-31.006
			c-3.987-19.563-19.431-35.007-38.994-38.994V386h176c16.542,0,30-13.458,30-30V56C512,39.458,498.542,26,482,26z M324.28,466
			H187.72c4.128-11.639,15.243-20,28.28-20h80C309.036,446,320.152,454.361,324.28,466z M226,426v-40h60v40H226z M492,356
			c0,5.514-4.486,10-10,10H30c-5.514,0-10-4.486-10-10v-51h472V356z M492,285H20V56c0-5.514,4.486-10,10-10h452
			c5.514,0,10,4.486,10,10V285z"/>
	</g>
</g>
<g>
	<g>
		<path d="M277,326h-40c-5.522,0-10,4.477-10,10s4.478,10,10,10h40c5.522,0,10-4.477,10-10S282.522,326,277,326z"/>
	</g>
</g>
<g>
	<g>
		<path d="M395.5,65.291c-16.542,0-30,13.458-30,30c0,4.552,1.01,8.948,2.921,12.937l-79.985,79.984
			c-3.989-1.91-8.385-2.921-12.936-2.921c-4.553,0-8.95,1.011-12.937,2.92l-19.983-19.983c1.91-3.989,2.921-8.385,2.921-12.937
			c0-16.542-13.458-30-30-30s-30,13.458-30,30c0,4.552,1.01,8.948,2.921,12.937l-39.984,39.983c-3.989-1.91-8.385-2.92-12.937-2.92
			c-16.542,0-30,13.458-30,30c0,16.542,13.457,29.999,29.999,29.999s30-13.458,30-30c0-4.557-1.01-8.955-2.917-12.94l39.981-39.98
			c3.989,1.91,8.385,2.921,12.936,2.921s8.948-1.01,12.936-2.921l19.982,19.981c-1.909,3.986-2.918,8.384-2.918,12.94
			c0,16.542,13.458,30,30,30s30-13.458,30-30c0-4.556-1.01-8.953-2.918-12.94l79.982-79.981c3.989,1.91,8.385,2.921,12.936,2.921
			c16.542,0,30-13.458,30-30S412.042,65.291,395.5,65.291z M135.5,245.29c-5.514,0-10-4.486-10-10s4.486-10,10-10
			c5.427,0,10,4.381,10,10C145.5,240.804,141.014,245.29,135.5,245.29z M215.5,165.29c-5.521,0-10-4.479-10-10
			c0-5.514,4.486-10,10-10c5.514,0,10,4.486,10,10C225.5,160.812,221.021,165.29,215.5,165.29z M275.5,225.29
			c-5.514,0-10-4.486-10-10c0-5.584,4.54-10,10-10c5.466,0,10,4.424,10,10C285.5,220.804,281.014,225.29,275.5,225.29z
			 M395.5,105.29c-5.521,0-10-4.479-10-10c0-5.514,4.486-10,10-10c5.514,0,10,4.486,10,10
			C405.5,100.804,401.014,105.29,395.5,105.29z"/>
	</g>
</g>
<g>
</g>
<g>
</g>
<g>
</g>
<g>
</g>
<g>
</g>
<g>
</g>
<g>
</g>
<g>
</g>
<g>
</g>
<g>
</g>
<g>
</g>
<g>
</g>
<g>
</g>
<g>
</g>
<g>
</g>
</svg>
