<?xml version="1.0" encoding="iso-8859-1"?>
<!-- Generator: Adobe Illustrator 19.0.0, SVG Export Plug-In . SVG Version: 6.00 Build 0)  -->
<svg version="1.1" id="Capa_1" xmlns="http://www.w3.org/2000/svg" xmlns:xlink="http://www.w3.org/1999/xlink" x="0px" y="0px"
	 viewBox="0 0 512 512" style="enable-background:new 0 0 512 512;" xml:space="preserve">
<g>
	<g>
		<path d="M155.997,366.014c-5.53,0-9.99,4.452-9.99,9.99c0,5.143,3.869,9.429,8.99,9.938c5.929,0.589,10.99-4.031,10.99-9.938
			C165.987,370.474,161.535,366.014,155.997,366.014z"/>
	</g>
</g>
<g>
	<g>
		<path d="M511.176,412.036c-0.025-0.059-0.045-0.12-0.071-0.178c-0.005-0.011-0.008-0.022-0.013-0.033l-45.086-98.014V75.995
			c0-16.542-13.458-30.001-30.001-30.001H75.994c-16.543,0-30.001,13.458-30.001,30.001v237.817L0.907,411.825
			c-0.005,0.011-0.009,0.023-0.014,0.034c-0.026,0.058-0.045,0.119-0.071,0.177c-1.195,2.762-1.053,5.839,0.205,8.392
			c0.008,0.016,0.013,0.034,0.021,0.05c14.046,28.083,42.273,45.527,73.665,45.527h362.572c31.163,0,59.704-17.604,73.666-45.529
			c0.008-0.017,0.013-0.035,0.022-0.051C512.235,417.862,512.371,414.797,511.176,412.036z M65.994,75.995c0-5.515,4.486-10,10-10
			h360.011c5.514,0,10,4.486,10,10v230.007H65.994V75.995z M437.285,446.006H74.713c-17.772,0-34.204-7.486-45.811-20.101h454.149
			C471.416,438.474,454.902,446.006,437.285,446.006z M25.6,406.005l36.801-80.002h387.197l36.801,80.002H25.6z"/>
	</g>
</g>
<g>
	<g>
		<path d="M235.999,165.998h-70.002v-20.001c0-22.057-17.945-40.001-40.001-40.001c-22.057,0-40.001,17.945-40.001,40.001v30.001
			c0,5.523,4.477,10,10,10c5.522,0,10-4.477,10-10v-30.001c0-11.028,8.972-20.001,20.001-20.001s20.001,8.972,20.001,20.001v20.001
			h-10c-5.522,0-10,4.477-10,10v80.002c0,5.523,4.478,10,10,10h100.003c5.522,0,10-4.477,10-10v-80.002
			C245.999,170.475,241.521,165.998,235.999,165.998z M225.999,246h-80.002v-60.002h80.002V246z"/>
	</g>
</g>
<g>
	<g>
		<path d="M396.004,145.997c-16.576,0-30.001,13.424-30.001,30.001v10H276c-5.522,0-10,4.477-10,10v20.001c0,5.523,4.477,10,10,10
			c5.522,0,10-4.477,10-10v-10h20.001v10c0,5.523,4.478,10,10,10s10-4.477,10-10v-10h40.001v10
			c0,16.542,13.458,30.001,30.001,30.001s30.001-13.458,30.001-30.001v-40.001C426.004,159.456,412.546,145.997,396.004,145.997z
			 M406.004,215.999c0,5.514-4.486,10-10,10s-10-4.486-10-10v-40.001c0-5.521,4.478-10,10-10c5.514,0,10,4.486,10,10V215.999z"/>
	</g>
</g>
<g>
	<g>
		<path d="M356.002,366.004H195.998c-5.522,0-10,4.477-10,10s4.477,10,10,10h160.005c5.522,0,10-4.477,10-10
			S361.525,366.004,356.002,366.004z"/>
	</g>
</g>
<g>
</g>
<g>
</g>
<g>
</g>
<g>
</g>
<g>
</g>
<g>
</g>
<g>
</g>
<g>
</g>
<g>
</g>
<g>
</g>
<g>
</g>
<g>
</g>
<g>
</g>
<g>
</g>
<g>
</g>
</svg>
