<?xml version="1.0" ?><svg enable-background="new 0 0 515.91 728.5" height="512" id="Layer_1" version="1.1" viewBox="0 0 512.00003 512" width="512" xml:space="preserve" xmlns="http://www.w3.org/2000/svg" xmlns:cc="http://creativecommons.org/ns#" xmlns:dc="http://purl.org/dc/elements/1.1/" xmlns:inkscape="http://www.inkscape.org/namespaces/inkscape" xmlns:rdf="http://www.w3.org/1999/02/22-rdf-syntax-ns#" xmlns:sodipodi="http://sodipodi.sourceforge.net/DTD/sodipodi-0.dtd" xmlns:svg="http://www.w3.org/2000/svg"><defs id="defs7"/><g id="g4354" transform="translate(136.1786,108.25001)"><path d="m -733.62329,72.267944 c 0,203.804876 -165.21649,369.021366 -369.02141,369.021366 -203.8048,0 -369.0213,-165.21649 -369.0213,-369.021366 0,-203.804874 165.2165,-369.021364 369.0213,-369.021364 203.80492,0 369.02141,165.21649 369.02141,369.021364 z" id="path5014" style="fill:#000000;fill-opacity:1;fill-rule:nonzero;stroke:none" transform="matrix(0.69372682,0,0,0.69372682,884.75558,97.615782)"/><path d="m -59.689961,12.926772 0,61.57621 26.27831,0 c 18.3501,0 21.595,12.6912 21.595,30.224298 l 0.1301,108.8424 c 10e-5,56.38201 49.4645,102.07771 110.4035,102.07771 l 150.427911,0 c 19.2889,0 36.1652,-12.1883 36.1652,-30.9615 l 0,-168.77081 c 0,-56.381908 -49.4397,-102.077608 -110.4468,-102.077608 l -63.31071,0 0,-0.1735 -171.242511,-0.7372 z m 82.26061,37.6828 30.2243,1e-4 10e-5,155.111208 c 0,20.7469 14.1585,36.85901 30.7447,36.85901 l 103.075011,0.4336 c 21.493,0 38.2465,-14.82501 38.2465,-32.39251 l -0.1733,-82.3473 c 0,-5.3443 -1.7346,-9.5013 -5.5506,-13.3559 -3.8286,-3.8667 -7.9185,-5.6373 -13.1825,-5.6373 -5.3743,0 -9.3457,1.7615 -13.1825,5.6372 -3.8154,3.855 -5.5505,8.0117 -5.5505,13.356 l -1e-4,70.4657 -31.9588,0 0,-70.4658 c -1e-4,-5.3442 -1.778,-9.5013 -5.5939,-13.3558 -3.8365,-3.8761 -7.8082,-5.6373 -13.1825,-5.6373 -5.2639,0 -9.3109,1.7703 -13.1391,5.6373 -3.81611,3.8543 -5.59391,8.0116 -5.59391,13.3559 l -1e-4,70.4657 -31.958801,0 0,-70.4657 c -1e-4,-13.9433 5.163,-26.3117 14.960401,-36.208498 9.8019,-9.9024 22.00121,-15.0038 35.73151,-15.0038 13.4719,0 25.1829,5.0613 34.6908,14.2233 9.5358,-9.1771 21.3001,-14.2233 34.7775,-14.2233 13.7303,0 25.9293,5.1017 35.7316,15.0038 9.7977,9.896698 14.9604,22.265098 14.9604,36.208498 l 0.1301,87.9846 c -1.5106,14.7307 -7.7538,27.79981 -18.3862,38.72361 l -0.042,0 c -12.5013,12.7272 -27.9801,19.2967 -45.6185,19.2967 l -114.783111,-1e-4 0,-0.5637 c -14.0484,-1.5023 -26.549,-7.6034 -36.9457,-17.8656 -12.1637,-12.117 -18.4294,-27.10031 -18.4294,-44.18751 l 0,-161.052108 z" id="path2576" style="fill:#ffffff;fill-opacity:1;fill-rule:evenodd;display:inline"/></g></svg>