<?xml version="1.0" encoding="iso-8859-1"?>
<!-- Generator: Adobe Illustrator 18.1.1, SVG Export Plug-In . SVG Version: 6.00 Build 0)  -->
<svg version="1.1" id="Capa_1" xmlns="http://www.w3.org/2000/svg" xmlns:xlink="http://www.w3.org/1999/xlink" x="0px" y="0px"
	 viewBox="0 0 201.972 201.972" style="enable-background:new 0 0 201.972 201.972;" xml:space="preserve">
<g>
	<g>
		<path style="fill:#010002;" d="M187.988,0H13.992C7.138,0,1.555,5.576,1.555,12.429v131.058c0,6.854,5.583,12.429,12.437,12.429
			h49.138c3.65,4.728,11.023,16.083,8.443,21.477c-1.045,2.172-3.89,3.278-8.464,3.278c-24.73,0-25.442,8.761-25.442,9.763v11.538
			H164.31v-15.081l-0.701-0.526c-0.304-0.236-7.677-5.69-25.872-5.69c-3.973,0-4.763-1.557-5.025-2.061
			c-2.273-4.449,3.879-15.947,8.607-22.693h46.668c6.854,0,12.429-5.576,12.429-12.429V12.429C200.414,5.576,194.842,0,187.988,0z
			 M129.549,180.22c1.349,2.652,4.101,3.998,8.185,3.998c13.825,0,20.9,3.318,23.03,4.531v9.674H41.219l-0.004-7.902
			c0.179-1.75,4.477-6.302,21.895-6.302c6.059,0,9.978-1.779,11.663-5.293c3.25-6.782-3.464-17.73-7.222-23.012h69.491
			C133.339,161.564,126.264,173.8,129.549,180.22z M196.867,143.487c0,4.896-3.98,8.879-8.879,8.879h-44.113H60.288H13.992
			c-4.899,0-8.879-3.983-8.879-8.879V12.429c0-4.899,3.98-8.879,8.879-8.879h173.997c4.899,0,8.879,3.98,8.879,8.879V143.487z"/>
		<path style="fill:#010002;" d="M12.216,129.615H189.76V12.902H12.216V129.615z M15.767,16.448h170.443v109.617H15.767V16.448z"/>
		<circle style="fill:#010002;" cx="100.99" cy="142.882" r="5.859"/>
		<path style="fill:#010002;" d="M83.478,86.49c-1.106-0.44-2.77,1.045-3.21,2.147c-0.44,1.102-2.355-0.344-3.454-0.344
			c-1.099,0-2.634,2.924-1.757,3.582c1.965,1.8,0.44,4.334,0.44,4.334s-0.512,0.666-0.734,2.641
			c-1.238,3.439,3.182,2.133,4.828,2.355c3.368,0.093,9.122,2.172,9.122,2.172c1.539,0,3.278-0.873,4.27-2.079
			c0.991-1.21-1.528-4.86-1.739-5.411C91.023,95.341,84.57,86.927,83.478,86.49z"/>
		<path style="fill:#010002;" d="M97.314,96.565c0,0-1.689-0.111-1.689,1.199c0,0.719-0.412,2.537,0.619,2.537
			c1.024,0,9.473,0.004,9.881,0.004c0.404,0,0.608-0.612,0.608-1.024c0-0.404,0-6.539,0-6.539s-4.595,4.005-6.038,3.905
			C99.258,96.539,98.238,96.565,97.314,96.565z"/>
		<path style="fill:#010002;" d="M125.945,92.857c-1.768-0.508-3.64-0.326-3.897-1.464c-0.247-1.142,0.211-5.576-2.194-4.237
			c-1.521,1.768-3.804,4.055-5.952,3.679c-2.158-0.383-1.188-4.932-3.21-4.932c-2.026,0-2.405,0.376-2.405,1.893l0.097,11.438
			c0,0-0.898,4.423,1.772,5.322c2.652,0.888,3.998-0.93,7.04-2.323c3.038-1.392,5.841-3.425,7.233-4.184
			C125.816,97.302,127.72,93.365,125.945,92.857z"/>
		<path style="fill:#010002;" d="M110.706,74.562c2.212,3.561,2.23,8.167,2.23,8.167c0,4.28,2.061,5.2,2.061,5.2
			c1.474,0,5.672-3.847,5.672-3.847c0-1.925-1.381-12.29-5.819-15.983c-4.441-3.693-6.199-6.51-6.199-6.51s0.229-5.125,0.021-12.648
			c-0.737-7.1-10.393-7.938-10.393-7.938c-5.987,0-10.203,5.522-10.876,8.292c-0.659,2.77,2.988,14.688,2.326,16.237
			c-0.05,1.528-8.203,10.293-8.221,10.336c-1.668,2.33-2.248,8.403-2.248,8.403c0.777-1.22,4.577-0.283,4.577-0.283
			c1.335,1.671,7.118,9.23,7.118,9.23s1.489,1.732,2.702,0.623c1.224-1.109-1.639-5.558-1.639-5.558
			c-6.102-5.204-6.342-6.145-6.342-6.145c-1.331-4.556,4.058-9.835,4.058-10.386c1.263-2.219,2.502-6.088,2.502-6.088
			s4.241,2.083,6.871,2.083c0,0,6.131,0.419,8.256-3.439c0.336-0.612,0.934,3.171,0.934,4.27
			C108.301,69.691,108.487,71.019,110.706,74.562z M103.42,49.134c2.219,0,2.892,2.988,2.892,2.988c0,1.002-0.097,3.103-0.097,3.103
			c0,0.129-1.12,0.361-2.516,0.422c0.136-0.29,0.254-0.612,0.311-0.998c0.147-1.102-0.204-1.847-0.762-1.918
			c-0.551-0.068-1.102,0.544-1.245,1.632c-0.068,0.472-0.032,0.895,0.064,1.256c-0.666-0.064-1.306-0.179-1.893-0.383
			C98.692,48.347,103.42,49.134,103.42,49.134z M92.061,49.209c5.429-0.383,4.377,5.576,4.377,5.576l-1.482,0.805
			c-0.064-0.455-0.175-0.927-0.261-1.22c-0.19-0.676-1.245-1.621-1.84-1.453c-0.601,0.168-0.394,1.986-0.204,2.67
			c0.082,0.293,0.372,0.619,0.716,0.88l-1.482,0.795c-1.22-0.884-2.079-4.037-2.079-4.037
			C89.806,49.789,92.061,49.209,92.061,49.209z M104.948,61.71c-0.068-0.011-3.085,1.886-6.03,1.868
			c-2.673-0.014-5.243-1.965-6.564-2.18c-1.593-0.68-0.963-1.446-0.626-2.011c0,0,1.106-1.346,2.713-2.455l0.011,0.011l0.451-0.254
			c0,0,0-0.029,0.004-0.05c0.959-0.587,2.036-1.063,3.171-1.117c0.984-0.057,2.809,0.336,4.459,0.862
			c0.064,0.039,0.115,0.1,0.183,0.111l0.061-0.029c1.238,0.401,2.33,0.87,2.877,1.256C107.396,59.463,105.277,61.778,104.948,61.71z
			"/>
	</g>
</g>
<g>
</g>
<g>
</g>
<g>
</g>
<g>
</g>
<g>
</g>
<g>
</g>
<g>
</g>
<g>
</g>
<g>
</g>
<g>
</g>
<g>
</g>
<g>
</g>
<g>
</g>
<g>
</g>
<g>
</g>
</svg>
