<?xml version="1.0" encoding="utf-8"?>
<!-- Svg Vector Icons : http://www.onlinewebfonts.com/icon -->
<!DOCTYPE svg PUBLIC "-//W3C//DTD SVG 1.1//EN" "http://www.w3.org/Graphics/SVG/1.1/DTD/svg11.dtd">
<svg version="1.1" xmlns="http://www.w3.org/2000/svg" xmlns:xlink="http://www.w3.org/1999/xlink" x="0px" y="0px" viewBox="0 0 1000 1000" enable-background="new 0 0 1000 1000" xml:space="preserve">
<metadata> Svg Vector Icons : http://www.onlinewebfonts.com/icon </metadata>
<g><g><g id="c43_terminal"><path d="M919.9,80H80c-38.7,0-70,31.3-70,69.9V850c0,38.6,31.4,70,70,70h839.9c38.6,0,70.1-31.4,70.1-70V149.9C990,111.3,958.5,80,919.9,80z M237.5,132.5c19.3,0,35,15.6,35,35c0,19.3-15.7,34.9-35,34.9c-19.4,0-35.1-15.6-35.1-34.9C202.5,148.2,218.1,132.5,237.5,132.5z M132.5,132.5c19.3,0,35,15.6,35,35c0,19.3-15.7,34.9-35,34.9c-19.3,0-35-15.6-35-34.9C97.5,148.2,113.1,132.5,132.5,132.5z M919.9,850H80V255.7h839.9V850z"/><polygon points="402.3,399.6 177.6,296.8 177.6,346.4 351.4,420.7 351.4,421.6 177.6,495.8 177.6,545.4 402.3,442.6 "/><rect x="508.1" y="397.5" width="122.5" height="47.2"/></g><g id="Capa_1_86_"></g></g><g></g><g></g><g></g><g></g><g></g><g></g><g></g><g></g><g></g><g></g><g></g><g></g><g></g><g></g><g></g></g>
</svg>